<svg xmlns="http://www.w3.org/2000/svg" version="1.1" xmlns:xlink="http://www.w3.org/1999/xlink" xmlns:svgjs="http://svgjs.dev/svgjs" width="2000" height="2000" viewBox="0 0 2000 2000"><g transform="matrix(1,0,0,1,-0.28443113772425477,-0.28443113772459583)"><svg viewBox="0 0 334 334" data-background-color="#ffffff" preserveAspectRatio="xMidYMid meet" height="2000" width="2000" xmlns="http://www.w3.org/2000/svg" xmlns:xlink="http://www.w3.org/1999/xlink"><g id="tight-bounds" transform="matrix(1,0,0,1,0.04749999999998522,0.04750000000001364)"><svg viewBox="0 0 333.90454557049503 333.90454557049503" height="333.90454557049503" width="333.90454557049503"><g><svg></svg></g><g><svg viewBox="0 0 333.90454557049503 333.90454557049503" height="333.90454557049503" width="333.90454557049503"><g><path d="M0 166.952c0-92.205 74.747-166.952 166.952-166.952 92.205 0 166.952 74.747 166.953 166.952 0 92.205-74.747 166.952-166.953 166.953-92.205 0-166.952-74.747-166.952-166.953zM166.952 327.306c88.561 0 160.354-71.793 160.354-160.354 0-88.561-71.793-160.354-160.354-160.354-88.561 0-160.354 71.793-160.354 160.354 0 88.561 71.793 160.354 160.354 160.354z" data-fill-palette-color="tertiary" fill="#ee3e38" stroke="transparent"></path><ellipse rx="160.27418187383762" ry="160.27418187383762" cx="166.95227278524752" cy="166.95227278524752" fill="#ee3e38" stroke="transparent" stroke-width="0" fill-opacity="1" data-fill-palette-color="tertiary"></ellipse></g><g transform="matrix(1,0,0,1,75.15753121242935,71.17305217166896)"><svg viewBox="0 0 183.58948314563634 191.55844122715712" height="191.55844122715712" width="183.58948314563634"><g><svg viewBox="0 0 183.58948314563634 191.55844122715712" height="191.55844122715712" width="183.58948314563634"><g><svg viewBox="0 0 213.1584412271571 222.41088125670953" height="191.55844122715712" width="183.58948314563634"><g transform="matrix(1,0,0,1,0,137.45884729867717)"><svg viewBox="0 0 213.1584412271571 84.95203395803236" height="84.95203395803236" width="213.1584412271571"><g id="textblocktransform"><svg viewBox="0 0 213.1584412271571 84.95203395803236" height="84.95203395803236" width="213.1584412271571" id="textblock"><g><svg viewBox="0 0 213.1584412271571 84.95203395803236" height="84.95203395803236" width="213.1584412271571"><g transform="matrix(1,0,0,1,0,0)"><svg width="213.1584412271571" viewBox="1.5 -38.2 95.85 38.2" height="84.95203395803236" data-palette-color="#ffffff"><path d="M1.5 0L1.5-1.85Q3.1-1.85 3.8-2.35 4.5-2.85 4.5-4L4.5-4 4.5-33.5Q4.5-34.65 3.8-35.15 3.1-35.65 1.5-35.65L1.5-35.65 1.5-37.5 11.35-37.5 18.7-9.95 25.7-37.5 35.3-37.5 35.3-35.65Q33.6-35.65 32.95-35.18 32.3-34.7 32.3-33.5L32.3-33.5 32.3-4Q32.3-2.85 33-2.35 33.7-1.85 35.3-1.85L35.3-1.85 35.3 0 23.8 0 23.8-1.85Q25.4-1.85 26.1-2.35 26.8-2.85 26.8-4L26.8-4 26.8-32.7 18.4 0 16.1 0 6.85-32.05 6.85-4Q6.85-2.85 7.55-2.35 8.25-1.85 9.85-1.85L9.85-1.85 9.85 0 1.5 0ZM38.3 0L38.3-1.85Q39.9-1.85 40.6-2.35 41.3-2.85 41.3-4L41.3-4 41.3-33.5Q41.3-34.65 40.6-35.15 39.9-35.65 38.3-35.65L38.3-35.65 38.3-37.5 48.15-37.5 55.5-9.95 62.5-37.5 72.1-37.5 72.1-35.65Q70.4-35.65 69.75-35.18 69.1-34.7 69.1-33.5L69.1-33.5 69.1-4Q69.1-2.85 69.8-2.35 70.5-1.85 72.1-1.85L72.1-1.85 72.1 0 60.6 0 60.6-1.85Q62.2-1.85 62.9-2.35 63.6-2.85 63.6-4L63.6-4 63.6-32.7 55.2 0 52.9 0 43.65-32.05 43.65-4Q43.65-2.85 44.35-2.35 45.05-1.85 46.65-1.85L46.65-1.85 46.65 0 38.3 0ZM80-8.95L78.95-4.05Q78.75-3 79.52-2.43 80.3-1.85 81.95-1.85L81.95-1.85 81.95 0 73.6 0 73.6-1.85Q75.05-1.85 75.75-2.35 76.45-2.85 76.7-4.05L76.7-4.05 84.2-38.2 86.6-38.2 94.35-3.95Q94.6-2.7 95.22-2.27 95.85-1.85 97.35-1.85L97.35-1.85 97.35 0 85.75 0 85.75-1.85Q87.55-1.85 88.27-2.33 89-2.8 88.75-3.9L88.75-3.9 87.7-8.95 80-8.95ZM83.95-26.9L80.45-10.95 87.25-10.95 83.95-26.9Z" opacity="1" transform="matrix(1,0,0,1,0,0)" fill="#ffffff" class="wordmark-text-0" data-fill-palette-color="quaternary" id="text-0"></path></svg></g></svg></g></svg></g></svg></g><g transform="matrix(1,0,0,1,71.35810733457834,0)"><svg viewBox="0 0 70.44222655800043 117.40371093000073" height="117.40371093000073" width="70.44222655800043"><g><svg xmlns="http://www.w3.org/2000/svg" xmlns:xlink="http://www.w3.org/1999/xlink" version="1.1" x="0" y="0" viewBox="14 2 36 60" style="enable-background:new 0 0 64 64;" xml:space="preserve" height="117.40371093000073" width="70.44222655800043" class="icon-icon-0" data-fill-palette-color="quaternary" id="icon-0"><path d="M45 36h-3v-4H14v25c0 2.8 2.2 5 5 5h18c2.8 0 5-2.2 5-5v-3h3c2.8 0 5-2.2 5-5v-8C50 38.2 47.8 36 45 36zM23.9 54.5l-1.7 1L17.8 48l4.3-7.5 1.7 1L20.2 48 23.9 54.5zM27 55.3L25 54.7l4-14 1.9 0.5L27 55.3zM33.9 55.5l-1.7-1 3.7-6.5-3.7-6.5 1.7-1 4.3 7.5L33.9 55.5zM48 49c0 1.7-1.3 3-3 3h-3V38h3c1.7 0 3 1.3 3 3V49z" fill="#ffffff" data-fill-palette-color="quaternary"></path><g fill="#ffffff" data-fill-palette-color="quaternary"><path d="M38 30h-2v-2c0-1.1-0.9-2-2-2H20c-2.2 0-4-1.8-4-4s1.8-4 4-4h14c1.1 0 2-0.9 2-2s-0.9-2-2-2H20c-2.2 0-4-1.8-4-4s1.8-4 4-4h14c1.1 0 2-0.9 2-2V2h2v2c0 2.2-1.8 4-4 4H20c-1.1 0-2 0.9-2 2s0.9 2 2 2h14c2.2 0 4 1.8 4 4s-1.8 4-4 4H20c-1.1 0-2 0.9-2 2s0.9 2 2 2h14c2.2 0 4 1.8 4 4V30z" fill="#ffffff" data-fill-palette-color="quaternary"></path></g></svg></g></svg></g><g></g></svg></g></svg></g></svg></g></svg></g><defs></defs></svg><rect width="333.90454557049503" height="333.90454557049503" fill="none" stroke="none" visibility="hidden"></rect></g></svg></g></svg>